<svg width="26" height="26" viewBox="0 0 26 26" fill="none" xmlns="http://www.w3.org/2000/svg">
<path fill-rule="evenodd" clip-rule="evenodd" d="M13.0052 2.00117C13.4471 2.00117 13.8052 2.35934 13.8052 2.80117L13.8052 23.2092C13.8052 23.651 13.4471 24.0092 13.0052 24.0092C12.5634 24.0092 12.2052 23.651 12.2052 23.2092L12.2052 2.80117C12.2052 2.35934 12.5634 2.00117 13.0052 2.00117Z" fill="white"/>
<path fill-rule="evenodd" clip-rule="evenodd" d="M24.0092 13.0052C24.0092 13.447 23.651 13.8052 23.2092 13.8052L2.80116 13.8052C2.35933 13.8052 2.00116 13.447 2.00116 13.0052C2.00116 12.5633 2.35933 12.2052 2.80116 12.2052L23.2092 12.2052C23.651 12.2052 24.0092 12.5634 24.0092 13.0052Z" fill="white"/>
</svg>
